<?xml version="1.0" encoding="utf-8" ?>	<!-- Generator: Assembly 2.2 - http://assemblyapp.co -->	<svg version="1.1" xmlns="http://www.w3.org/2000/svg" xmlns:xlink="http://www.w3.org/1999/xlink" width="2048.00" height="2048.00" viewBox="0 0 2048.0 2048.0">		<g id="document" transform="matrix(1,0,0,1,1024.0,1024.0)">			<path d="M-167.869,-5.76703 C-168.768,-3.30467 -169.252,-0.507403 -169.252,2.65286 C-169.252,20.1617 -154.396,25.9979 -136.357,25.9979 L-93.9109,25.9979 L-92.8498,25.9979 C-33.4259,29.7119 -6.89743,46.6901 -6.89743,104.522 L-6.8974,380.419 C-6.8974,446.74 -42.4456,458.943 -122.562,458.943 L-135.826,458.943 C-153.865,458.943 -168.721,464.249 -168.191,482.288 C-168.191,499.797 -153.335,505.633 -135.295,505.633 L-129.459,505.633 L-91.7886,506.694 L-90.7274,506.694 C73.2187,506.694 190.475,395.275 190.475,241.409 C190.475,129.664 128.775,40.7089 32.3302,0.0897091 C128.783,-40.5303 190.475,-129.804 190.475,-241.409 C190.475,-395.805 72.6881,-506.694 -91.7886,-506.694 C-91.7886,-506.694 -126.276,-505.633 -126.806,-504.041 L-136.357,-504.041 C-154.396,-504.041 -169.252,-497.675 -169.252,-480.166 C-169.252,-462.657 -154.396,-456.821 -136.356,-456.821 L-93.9109,-456.821 L-92.8498,-456.821 C-33.4259,-453.107 -6.89743,-436.129 -6.89742,-378.296 L-6.8974,-102.4 C-6.89739,-36.0788 -42.4456,-23.8757 -122.562,-23.8756 L-135.826,-23.8756 C-151.984,-23.8756 -165.588,-19.6188 -167.869,-5.76703 L-167.869,-5.76703 Z " fill="#1a1a1a" fill-opacity="1.00" />		</g>	</svg>