<?xml version="1.0" encoding="utf-8" ?>	<!-- Generator: Assembly 2.2 - http://assemblyapp.co -->	<svg version="1.1" xmlns="http://www.w3.org/2000/svg" xmlns:xlink="http://www.w3.org/1999/xlink" width="2048.00" height="2048.00" viewBox="0 0 2048.0 2048.0">		<g id="document" transform="matrix(1,0,0,1,1024.0,1024.0)">			<g>				<path d="M278.625,8.58799 L-54.7226,-324.76 C-238.941,-508.978 -537.199,-508.978 -721.418,-324.76 C-905.636,-140.541 -905.636,157.717 -721.418,341.936 C-537.199,526.154 -238.941,526.154 -54.7226,341.936 L278.625,8.58799 Z M-111.671,-0.849362 C-111.671,172.797 -252.601,313.728 -426.248,313.728 C-599.895,313.728 -740.826,172.797 -740.826,-0.849379 C-740.826,-174.496 -599.895,-315.427 -426.248,-315.427 C-252.601,-315.427 -111.671,-174.496 -111.671,-0.849362 Z M-426.248,-189.596 C-530.688,-189.596 -614.995,-105.289 -614.995,-0.849376 C-614.995,103.59 -530.688,187.897 -426.248,187.897 C-321.809,187.897 -237.502,103.59 -237.502,-0.849365 C-237.502,-105.289 -321.809,-189.596 -426.248,-189.596 Z " fill="#000000" fill-opacity="1.00" />				<path d="M662.918,-305.804 L662.955,-305.804 L663.146,-305.613 L610.679,-8.51201 L383.484,43.9176 L348.531,8.96452 L575.726,-43.4651 L628.156,-340.566 L630.35,-338.374 L630.35,-338.372 L628.156,-340.566 L593.203,-305.613 L313.578,-25.9885 L278.625,8.96452 L558.25,288.589 L593.203,253.636 L872.827,-25.9885 L907.78,-60.9416 L662.918,-305.804 L662.918,-305.804 Z " fill="#000000" fill-opacity="1.00" />			</g>		</g>	</svg>