<?xml version="1.0" encoding="UTF-8"?>
<svg width="42px" height="70px" viewBox="0 0 42 70" version="1.1" xmlns="http://www.w3.org/2000/svg" xmlns:xlink="http://www.w3.org/1999/xlink">
    <!-- Generator: Sketch 61.2 (89653) - https://sketch.com -->
    <title>bolddesign_logo</title>
    <desc>Created with Sketch.</desc>
    <g id="Page-1" stroke="none" stroke-width="1" fill="none" fill-rule="evenodd">
        <g id="bolddesign_logo" fill="#000000" fill-rule="nonzero">
            <g id="Group" transform="translate(21.000000, 35.000000) scale(-1, 1) translate(-21.000000, -35.000000) ">
                <path d="M40,0 L40,20.9136308 C40,22.2306554 39.8726985,23.5179472 39.629729,24.7638725 L20.4568154,24.7635134 C13.7443237,24.7635134 7.78693894,27.9965102 4.05685383,32.990311 C1.51085273,29.6351574 0,25.4508334 0,20.9136308 L0,20.4568154 C0,9.15882823 9.15882823,0 20.4568154,0 L40,0 Z" id="Combined-Shape"></path>
                <path d="M22,30 L42,30 L42,30 L42,50 C42,61.045695 33.045695,70 22,70 C10.954305,70 2,61.045695 2,50 C2,38.954305 10.954305,30 22,30 Z" id="Rectangle-Copy-2"></path>
            </g>
        </g>
    </g>
</svg>