<?xml version="1.0" encoding="utf-8" ?>	<!-- Generator: Assembly 2.2 - http://assemblyapp.co -->	<svg version="1.1" xmlns="http://www.w3.org/2000/svg" xmlns:xlink="http://www.w3.org/1999/xlink" width="2048.00" height="2048.00" viewBox="0 0 2048.0 2048.0">		<g id="document" transform="matrix(1,0,0,1,1024.0,1024.0)">			<path d="M233.451,142.193 C233.451,109.297 219.656,78.5244 198.433,57.3016 C267.407,38.7316 318.873,-24.9368 318.873,-99.7472 C318.873,-189.413 246.184,-262.102 156.518,-262.102 C66.8518,-262.102 -5.3057,-189.413 -5.3057,-99.7472 L-5.3057,142.193 C-5.3057,208.514 48.2819,262.102 114.603,262.102 C180.924,262.102 233.451,208.514 233.451,142.193 Z " fill="#000000" fill-opacity="1.00" />			<path d="M-238.756,-142.193 C-238.756,-109.297 -224.962,-78.5244 -203.739,-57.3016 C-272.713,-38.7316 -324.178,24.9368 -324.178,99.7471 C-324.178,189.413 -251.49,262.102 -161.824,262.102 C-72.1575,262.102 -1.98952e-13,189.413 -1.98952e-13,99.7471 L-2.55795e-13,-142.193 C-2.55795e-13,-208.514 -53.5876,-262.102 -119.909,-262.102 C-186.23,-262.102 -238.756,-208.514 -238.756,-142.193 Z " fill="#000000" fill-opacity="1.00" />			<path d="M-16.5117,-347.34 C-31.4531,-362.281 -55.6779,-362.281 -70.6193,-347.34 C-85.5607,-332.399 -85.5607,-308.174 -70.6193,-293.232 C-55.6779,-278.291 -31.4531,-278.291 -16.5117,-293.232 C-1.57035,-308.174 -1.57035,-332.399 -16.5117,-347.34 Z " fill="#140808" fill-opacity="1.00" />			<path d="M94.7803,-347.34 C79.8389,-362.281 55.6142,-362.281 40.6728,-347.34 C25.7314,-332.399 25.7314,-308.174 40.6728,-293.232 C55.6142,-278.291 79.8389,-278.291 94.7803,-293.232 C109.722,-308.174 109.722,-332.399 94.7803,-347.34 Z " fill="#140808" fill-opacity="1.00" />		</g>	</svg>