<?xml version="1.0" encoding="utf-8"?>
<!-- Generator: Adobe Illustrator 22.0.1, SVG Export Plug-In . SVG Version: 6.00 Build 0)  -->
<svg version="1.1" id="Layer_1" xmlns="http://www.w3.org/2000/svg" xmlns:xlink="http://www.w3.org/1999/xlink" x="0px" y="0px"
	 viewBox="0 0 225 225" style="enable-background:new 0 0 225 225;" xml:space="preserve">
<style type="text/css">
	.st0{fill:none;stroke:#000000;stroke-width:8;stroke-linecap:round;stroke-linejoin:round;}
</style>
<g transform="matrix( 1, 0, 0, 1, 0,0) ">
	<g>
		<g id="Layer0_0_FILL">
			<path d="M164.8,83c-5.9-5.9-12.4-10.6-19.3-14.1c-5,5.8-12.1,11.7-21.4,17.8l-2.6,12.5l-2.2-12.5C108.8,79.8,101,73,96.1,66.5
				c-0.7-0.9-1.4-1.9-2-2.9C81.5,66.7,70.3,73.2,60.4,83C46,97.4,38.8,114.8,38.8,135.2S46,173,60.4,187.4
				c9.3,9.3,19.9,15.6,31.7,18.9c6.5,1.8,13.3,2.7,20.5,2.7c20.4,0,37.8-7.2,52.2-21.6c14.4-14.4,21.6-31.8,21.6-52.2
				S179.2,97.4,164.8,83 M152.8,113.3c0.6,1.2,0.6,2.4,0.2,3.7c-0.4,1.3-1.3,2.2-2.5,2.8l-6.6,3.1l0,0.1c0,0,0,0,0.1,0
				c3-1,6-1,9,0.1c3.7,1.3,6.3,3.7,8,7.1l5.7,12c1.6,3.5,1.8,7,0.5,10.6c-1.1,3.3-3.2,5.7-6.1,7.4l2,4.2c0.1,0.3,0.2,0.6,0.3,0.9
				c0.6,1.9,0.5,3.7-0.1,5.6c-0.8,2.3-2.3,4-4.5,5.1c-2.2,1.1-4.5,1.2-6.8,0.3c-1.9-0.7-3.4-1.8-4.4-3.4c-0.2-0.3-0.3-0.5-0.5-0.8
				l-2-4.2l-43.1,20.5l2,4.2c0.1,0.3,0.2,0.6,0.3,0.9c0.6,1.9,0.6,3.7-0.2,5.6c-0.8,2.4-2.3,4.1-4.5,5.1c-2.2,1.1-4.5,1.2-6.8,0.3
				c-1.9-0.7-3.4-1.8-4.5-3.4c-0.1-0.3-0.3-0.5-0.4-0.8l-2-4.2l-0.1-0.4c-2.5,0.5-5,0.4-7.5-0.5c-3.6-1.3-6.2-3.7-7.9-7.1l-5.7-12
				c-1.6-3.5-1.8-7-0.6-10.6c0.8-2.1,1.9-3.9,3.4-5.3l-0.5-0.6l-3.8,1.8c-1.2,0.6-2.5,0.6-3.7,0.2c-1.3-0.4-2.2-1.2-2.8-2.4
				c-0.6-1.2-0.7-2.5-0.2-3.8c0.4-1.3,1.3-2.2,2.5-2.8l8-3.8c-2-9.4-2.7-15.5-2.1-18.3c0-0.2,0.1-0.4,0.1-0.5
				c1.3-3.6,3.7-6.3,7.1-7.9l41.7-19.9c2.4-1.1,4.7-1.6,7.1-1.3c1.1,0.1,2.3,0.3,3.5,0.8c2.5,0.9,7,5.4,13.5,13.4c0,0,0,0,0,0.1
				l0.5-0.4l8-3.8c1.2-0.6,2.5-0.7,3.7-0.2C151.2,111.3,152.2,112.1,152.8,113.3 M84.3,180.3c2.1,0.7,4.1,0.6,6-0.3
				c2-0.9,3.3-2.4,4.1-4.5c0.7-2.1,0.6-4.1-0.3-6.1c-0.9-2-2.4-3.3-4.5-4.1c-2.1-0.7-4.1-0.6-6.1,0.3c-1.9,0.9-3.3,2.4-4,4.5
				c-0.7,2.1-0.6,4.1,0.3,6.1C80.7,178.2,82.2,179.6,84.3,180.3 M104.3,160c-1.2,0.6-2,1.5-2.5,2.8c-0.4,1.3-0.4,2.5,0.2,3.7
				c0.6,1.2,1.5,2,2.8,2.5c1.3,0.5,2.5,0.4,3.7-0.2l18.1-8.6c1.2-0.6,2-1.5,2.5-2.8c0.5-1.3,0.4-2.5-0.2-3.7c-0.6-1.2-1.5-2-2.8-2.5
				c-1.3-0.4-2.5-0.4-3.7,0.2L104.3,160 M150.6,148.7c0.7-2.1,0.6-4.1-0.3-6c-0.9-2-2.4-3.3-4.5-4.1c-2.1-0.7-4.1-0.6-6.1,0.3
				c-2,0.9-3.3,2.4-4.1,4.5c-0.7,2.1-0.6,4.1,0.3,6.1c0.9,2,2.4,3.3,4.5,4c2.1,0.8,4.1,0.7,6.1-0.3
				C148.6,152.3,149.9,150.8,150.6,148.7 M156.1,41.4c0-9.2-3.3-17.1-9.8-23.6c-6.4-6.4-14.1-9.7-23.1-9.8c-0.4,0-0.9,0-1.3,0
				c-0.5,0-0.9,0-1.4,0c-9,0.1-16.7,3.4-23.1,9.8c-6.5,6.5-9.8,14.4-9.8,23.6c0,8,2.2,15.5,6.5,22.2c5.9-1.5,12.1-2.2,18.6-2.2
				c12,0,23,2.5,32.9,7.5c0.7-0.8,1.3-1.6,1.9-2.4C153.2,59,156.1,50.6,156.1,41.4z"/>
		</g>
	</g>
	<g>
		<path id="Layer0_0_1_STROKES" class="st0" d="M143.8,123l6.6-3.1c1.2-0.6,2.1-1.5,2.5-2.8c0.5-1.3,0.4-2.5-0.2-3.7
			c-0.6-1.2-1.5-2.1-2.8-2.5c-1.3-0.5-2.5-0.4-3.7,0.2l-8,3.8 M137.7,115.2c1.9,2.3,3.9,4.9,6.1,7.8l0.1,0 M143.8,123
			C143.8,123,143.8,123,143.8,123c3-1,6-1,9.1,0.1c3.7,1.3,6.3,3.7,8,7.1l5.7,12c1.6,3.5,1.8,7,0.5,10.6c-1.1,3.3-3.2,5.7-6.1,7.4
			l2,4.2c0.1,0.3,0.2,0.6,0.3,0.9c0.6,1.9,0.5,3.7-0.1,5.6c-0.8,2.3-2.3,4-4.5,5.1c-2.2,1.1-4.5,1.2-6.8,0.3
			c-1.9-0.7-3.4-1.8-4.4-3.4c-0.2-0.3-0.3-0.5-0.5-0.8l-2-4.2l-43.1,20.5l2,4.2c0.1,0.3,0.2,0.6,0.3,0.9c0.6,1.9,0.6,3.7-0.2,5.6
			c-0.8,2.4-2.3,4.1-4.5,5.1c-2.2,1.1-4.5,1.2-6.8,0.3c-1.9-0.7-3.4-1.8-4.5-3.4c-0.1-0.3-0.3-0.5-0.4-0.8l-2-4.2 M85.6,195.9
			c-2.5,0.5-5,0.4-7.5-0.5c-3.6-1.3-6.2-3.7-7.9-7.1l-5.7-12c-1.6-3.5-1.8-7-0.6-10.6c0.8-2.1,1.9-3.9,3.4-5.3 M66.7,159.7l-3.8,1.8
			c-1.2,0.6-2.5,0.6-3.7,0.2c-1.3-0.4-2.2-1.2-2.8-2.4c-0.6-1.2-0.7-2.5-0.2-3.8c0.4-1.3,1.3-2.2,2.5-2.8l8-3.8
			c-2-9.4-2.7-15.5-2.1-18.3c0-0.2,0.1-0.4,0.1-0.5c1.3-3.6,3.7-6.3,7.1-7.9l41.7-19.9c2.4-1.1,4.7-1.6,7.1-1.3
			c1.1,0.1,2.3,0.3,3.5,0.8c2.5,0.9,7,5.4,13.5,13.4c0,0,0,0,0,0.1 M143.8,123L143.8,123l-0.2,0.1
			C143.7,123.1,143.8,123.1,143.8,123 M66.7,148.9c0.6,2.9,1.4,6.3,2.4,9.9c0.6-0.4,1.2-0.8,1.9-1.1l71.3-34
			c0.4-0.2,0.9-0.4,1.3-0.6 M161,160.3c-0.3,0.2-0.7,0.3-1,0.5l-15.1,7.2 M67.2,160.3c0.5-0.5,1.1-1,1.8-1.5c0,0,0,0,0,0
			 M101.8,188.6l-13.1,6.3c-1,0.5-2.1,0.8-3.1,1.1"/>
	</g>
</g>
</svg>
