<?xml version="1.0" encoding="utf-8" ?>	<!-- Generator: Assembly 2.2 - http://assemblyapp.co -->	<svg version="1.1" xmlns="http://www.w3.org/2000/svg" xmlns:xlink="http://www.w3.org/1999/xlink" width="2048.00" height="2048.00" viewBox="0 0 2048.0 2048.0">		<g id="document" transform="matrix(1,0,0,1,1024.0,1024.0)">			<path d="M322.814,-174.112 C249.36,-174.112 180.646,-143.309 133.257,-95.9196 C91.7911,-249.935 -50.3767,-364.854 -217.424,-364.854 C-417.644,-364.854 -579.952,-202.545 -579.952,-2.32577 C-579.952,197.894 -417.644,359.017 -217.424,359.017 L322.814,359.017 C470.905,359.017 590.563,239.36 590.563,91.2681 C590.563,-56.8234 470.905,-174.112 322.814,-174.112 Z M-378.973,5.30574 C-286.63,97.648 -137.044,97.648 -44.702,5.3057 L-2.91813,47.0895 C-118.241,162.413 -305.433,162.413 -420.756,47.0896 L-378.973,5.30574 Z " fill="#000000" fill-opacity="1.00" />		</g>	</svg>