<?xml version="1.0" encoding="utf-8" ?>	<!-- Generator: Assembly 2.2 - http://assemblyapp.co -->	<svg version="1.1" xmlns="http://www.w3.org/2000/svg" xmlns:xlink="http://www.w3.org/1999/xlink" width="2048.00" height="2048.00" viewBox="0 0 2048.0 2048.0">		<g id="document" transform="matrix(1,0,0,1,1024.0,1024.0)">			<path d="M1.77048,-668.53 L1.77048,-668.547 C1.17999,-668.547 0.589804,-668.545 -6.45205e-05,-668.543 C-0.589878,-668.545 -1.18001,-668.547 -1.77045,-668.547 L-1.77045,-668.53 C-136.701,-667.284 -254.95,-594.868 -322.56,-488.195 C-368.027,-515.475 -422.587,-532.146 -481.694,-532.146 C-652.952,-532.146 -793.899,-391.199 -792.384,-219.941 C-792.384,-45.651 -652.952,93.7807 -478.663,93.7807 L1.77048,93.7807 L1.77048,93.7807 L478.663,93.7807 C652.952,93.7807 792.384,-45.651 792.384,-219.941 C793.899,-391.199 652.952,-532.146 481.694,-532.146 C422.587,-532.146 368.027,-515.475 322.56,-488.195 C254.95,-594.868 136.701,-667.284 1.77048,-668.53 L1.77048,-668.53 Z " fill="#000000" fill-opacity="1.00" />			<path d="M-488.455,314.739 L488.455,314.739 L488.455,162.811 L-488.455,162.811 L-488.455,314.739 Z " fill="#000000" fill-opacity="1.00" />			<path d="M-488.455,535.697 L488.455,535.697 L488.455,383.769 L-488.455,383.769 L-488.455,535.697 Z " fill="#000000" fill-opacity="1.00" />		</g>	</svg>