<?xml version="1.0" encoding="utf-8"?>
<!-- Generator: Adobe Illustrator 22.0.1, SVG Export Plug-In . SVG Version: 6.00 Build 0)  -->
<svg version="1.1" id="Layer_1" xmlns="http://www.w3.org/2000/svg" xmlns:xlink="http://www.w3.org/1999/xlink" x="0px" y="0px"
	 viewBox="0 0 229 229" style="enable-background:new 0 0 229 229;" xml:space="preserve">
<g transform="matrix( 1, 0, 0, 1, 0,0) ">
	<g>
		<g id="Layer0_0_FILL">
			<path d="M117.3,20.3c-1.6-0.5-2.8-0.5-3.7,0L36.1,68.7c-1,0.7-1.4,1.7-1.4,2.7v89.4h73.7c0.7,0,1.3-0.2,1.8-0.8
				c0.5-0.5,0.7-1.1,0.7-1.8s-0.2-1.2-0.7-1.7c-0.5-0.5-1.1-0.7-1.8-0.7h-9v-3.9h9c0.7,0,1.3-0.2,1.8-0.8c0.5-0.5,0.7-1.1,0.7-1.8
				s-0.2-1.2-0.7-1.7c-0.5-0.5-1.1-0.7-1.8-0.7h-9v-4h9c0.7,0,1.3-0.2,1.8-0.8c0.5-0.5,0.7-1.1,0.7-1.8s-0.2-1.2-0.7-1.7
				c-0.5-0.5-1.1-0.7-1.8-0.7h-9v-4h9c0.7,0,1.3-0.2,1.8-0.8c0.5-0.5,0.7-1.1,0.7-1.8s-0.2-1.2-0.7-1.7c-0.5-0.5-1.1-0.7-1.8-0.7
				H66.7V90.4c0-1.2,0.6-2,1.7-2.7l45.4-28.2c1.2-0.7,2.3-0.7,3.5,0l45.3,28.2c1,0.7,1.3,1.7,1.3,2.7v82.9H37.1
				c-0.7,0-1.3,0.2-1.8,0.7c-0.4,0.5-0.6,1.1-0.6,1.8c0,0.7,0.2,1.2,0.6,1.8c0.5,0.5,1.1,0.7,1.8,0.7h9v3.9h-9
				c-0.7,0-1.3,0.2-1.8,0.7c-0.4,0.5-0.6,1.1-0.6,1.8s0.2,1.2,0.6,1.8c0.5,0.5,1.1,0.7,1.8,0.7h9v3.9h-9c-0.7,0-1.3,0.2-1.8,0.7
				c-0.4,0.5-0.6,1.1-0.6,1.8s0.2,1.2,0.6,1.8c0.5,0.5,1.1,0.7,1.8,0.7h9v3.9h-9c-0.7,0-1.3,0.2-1.8,0.7c-0.4,0.5-0.6,1.1-0.6,1.8
				s0.2,1.2,0.6,1.8c0.5,0.5,1.1,0.7,1.8,0.7h159.3V71.5c0-1.3-0.5-2.2-1.6-2.7L117.3,20.3z"/>
		</g>
	</g>
</g>
</svg>
