<?xml version="1.0" encoding="utf-8" ?>	<!-- Generator: Assembly 2.2 - http://assemblyapp.co -->	<svg version="1.1" xmlns="http://www.w3.org/2000/svg" xmlns:xlink="http://www.w3.org/1999/xlink" width="2048.00" height="2048.00" viewBox="0 0 2048.0 2048.0">		<g id="document" transform="matrix(1,0,0,1,1024.0,1024.0)">			<path d="M115.9,-661.558 L115.9,-661.64 L105.417,-661.64 C105.405,-661.64 105.393,-661.64 105.381,-661.64 L105.381,-661.64 L-767.021,-661.64 L-767.021,48.0377 L-767.021,661.64 L105.381,661.64 L105.381,661.64 C105.406,661.64 105.431,661.64 105.455,661.64 L115.899,661.64 L115.899,661.558 C476.684,655.947 767.021,362.131 767.021,7.40293e-05 C767.021,-362.131 476.684,-655.946 115.9,-661.558 L115.9,-661.558 Z M-118.592,96.0755 L-118.592,224.583 C-118.592,339.077 -211.067,431.552 -325.561,431.552 C-440.054,431.552 -531.429,339.077 -531.429,224.583 L-531.429,221.281 L-531.429,221.281 L-531.429,96.0755 L-531.429,-221.281 L-531.429,-221.281 L-531.429,-224.583 C-531.429,-339.077 -440.054,-431.552 -325.561,-431.552 C-211.067,-431.552 -118.592,-339.077 -118.592,-224.583 L-118.592,96.0755 L-118.592,96.0755 Z " fill="#000000" fill-opacity="1.00" />		</g>	</svg>