<?xml version="1.0" encoding="utf-8" ?>	<!-- Generator: Assembly 2.2 - http://assemblyapp.co -->	<svg version="1.1" xmlns="http://www.w3.org/2000/svg" xmlns:xlink="http://www.w3.org/1999/xlink" width="2048.00" height="2048.00" viewBox="0 0 2048.0 2048.0">		<g id="document" transform="matrix(1,0,0,1,1024.0,1024.0)">			<path d="M764.224,769.8 L764.224,-15.2079 C764.224,-449.028 413.036,-800.216 -20.7842,-800.216 C-454.604,-800.216 -805.792,-449.028 -805.792,-15.2079 C-805.792,418.612 -454.604,769.8 -20.7842,769.8 L764.224,769.8 Z M502.14,525.38 L-14.708,525.38 C-300.335,525.38 -531.556,294.158 -531.556,8.53182 C-531.556,-277.095 -300.335,-508.316 -14.708,-508.316 C270.919,-508.316 502.14,-277.095 502.14,8.53183 L502.14,525.38 Z " fill="#000000" fill-opacity="1.00" />			<path d="M-20.7842,-156.838 C-20.7842,-65.7843 -95.1003,8.53182 -186.154,8.53182 C-277.208,8.53182 -351.524,-65.7843 -351.524,-156.838 C-351.524,-247.892 -277.208,-322.208 -186.154,-322.208 C-95.1003,-322.208 -20.7842,-247.892 -20.7842,-156.838 Z M144.586,-322.208 C53.532,-322.208 -20.7842,-247.892 -20.7842,-156.838 C-20.7842,-65.7843 53.532,8.53182 144.586,8.53182 C235.64,8.53182 309.956,-65.7843 309.956,-156.838 C309.956,-247.892 235.64,-322.208 144.586,-322.208 Z M-186.154,8.53182 C-277.208,8.53182 -351.524,82.848 -351.524,173.902 C-351.524,264.956 -277.208,339.272 -186.154,339.272 C-95.1003,339.272 -20.7842,264.956 -20.7842,173.902 C-20.7842,82.848 -95.1003,8.53182 -186.154,8.53182 Z M144.586,8.53182 C53.532,8.53182 -20.7842,82.848 -20.7842,173.902 C-20.7842,264.956 53.532,339.272 144.586,339.272 C235.64,339.272 309.956,264.956 309.956,173.902 C309.956,82.848 235.64,8.53182 144.586,8.53182 Z " fill="#000000" fill-opacity="1.00" />		</g>	</svg>