<?xml version="1.0" encoding="utf-8" ?>	<!-- Generator: Assembly 2.2 - http://assemblyapp.co -->	<svg version="1.1" xmlns="http://www.w3.org/2000/svg" xmlns:xlink="http://www.w3.org/1999/xlink" width="2048.00" height="2048.00" viewBox="0 0 2048.0 2048.0">		<g id="document" transform="matrix(1,0,0,1,1024.0,1024.0)">			<path d="M-184.093,-658.962 C-242.615,-685.17 -307.467,-699.748 -375.703,-699.748 C-634.938,-699.748 -845.332,-489.354 -845.332,-230.118 L-845.332,239.511 L-657.481,239.511 L-657.481,-230.118 C-657.481,-386.035 -531.62,-511.896 -375.703,-511.896 C-373.198,-511.896 -370.7,-511.863 -368.21,-511.799 C-427.166,-433.308 -462.112,-335.77 -462.112,-230.118 L-462.112,239.511 L-274.26,239.511 L-274.26,-230.118 C-274.26,-311.955 -239.586,-385.511 -184.093,-436.934 C-128.763,-385.663 -94.1306,-312.39 -93.9263,-230.844 L-93.9263,230.118 C-93.9263,489.354 116.468,699.748 375.703,699.748 C634.938,699.748 845.332,489.354 845.332,230.118 L845.332,-239.511 L657.481,-239.511 L657.481,230.118 C657.481,386.035 531.62,511.896 375.703,511.896 C219.786,511.896 93.9254,386.035 93.9254,230.118 L93.9254,-230.118 L93.9263,-230.118 C93.9263,-230.43 93.926,-230.741 93.9254,-231.052 L93.9254,-239.511 L93.8341,-239.511 C91.8292,-341.547 57.2295,-435.64 0.0251145,-511.799 C2.51467,-511.863 5.01233,-511.896 7.51775,-511.896 C163.435,-511.896 289.295,-386.035 289.295,-230.118 L289.295,239.511 L477.147,239.511 L477.147,-230.118 C477.147,-489.354 266.753,-699.748 7.51774,-699.748 C-60.7185,-699.748 -125.571,-685.17 -184.093,-658.962 L-184.093,-658.962 Z M191.22,-114.289 C225.821,-114.289 253.831,-142.299 253.831,-176.9 C253.831,-211.501 225.821,-239.511 191.22,-239.511 C156.62,-239.511 128.609,-211.501 128.609,-176.9 C128.609,-142.299 156.62,-114.289 191.22,-114.289 Z " fill="#000000" fill-opacity="1.00" />		</g>	</svg>