<?xml version="1.0" encoding="utf-8"?>
<!-- Generator: Adobe Illustrator 22.0.1, SVG Export Plug-In . SVG Version: 6.00 Build 0)  -->
<svg version="1.1" id="Layer_1" xmlns="http://www.w3.org/2000/svg" xmlns:xlink="http://www.w3.org/1999/xlink" x="0px" y="0px"
	 viewBox="0 0 229 229" style="enable-background:new 0 0 229 229;" xml:space="preserve">
<style type="text/css">
	.st0{fill-opacity:0.9961;}
	.st1{fill:none;stroke:#000000;stroke-width:15;stroke-linecap:square;stroke-miterlimit:3;}
</style>
<g transform="matrix( 1, 0, 0, 1, 0,0) ">
	<g>
		<g id="Layer0_0_FILL">
			<path class="st0" d="M75.4,103c-1.4-1.4-3-2.1-4.9-2.1c-1.9,0-3.6,0.7-4.9,2.1s-2.1,3-2.1,4.9c0,1.9,0.7,3.6,2.1,4.9
				s3,2.1,4.9,2.1c1.9,0,3.6-0.7,4.9-2.1s2.1-3,2.1-4.9C77.4,106,76.8,104.4,75.4,103z"/>
		</g>
	</g>
	<g>
		<path id="Layer0_0_1_STROKES" class="st1" d="M37.4,172v-69c0-7.2,1.3-13.8,4-19.9c2.1-6.2,5.7-11.8,10.8-16.9
			c8.8-8.8,19.5-13.2,32-13.2c0.5,0,1.1,0,1.6,0.1c0.5,0,1.1-0.1,1.6-0.1h55c13.8,0,25.6,4.9,35.3,14.7c9.8,9.8,14.7,21.6,14.7,35.3
			v69 M85.8,53c11.8,0.3,21.9,4.7,30.3,13.2c8.9,8.8,13.3,19.5,13.3,32s-4.4,23.2-13.3,31.9c-8.8,8.9-19.4,13.3-31.9,13.3
			c-0.1,0-0.4,0-0.8,0 M41.4,83.1c2.4-5.6,6-10.8,10.7-15.4c9.4-9.4,20.6-14.2,33.7-14.6 M150.4,172h-67"/>
	</g>
</g>
</svg>
