<?xml version="1.0" encoding="utf-8" ?>	<!-- Generator: Assembly 2.2 - http://assemblyapp.co -->	<svg version="1.1" xmlns="http://www.w3.org/2000/svg" xmlns:xlink="http://www.w3.org/1999/xlink" width="2048.00" height="2048.00" viewBox="0 0 2048.0 2048.0">		<g id="document" transform="matrix(1,0,0,1,1024.0,1024.0)">			<g>				<path d="M-374.428,-111.505 C-374.428,-315.249 -209.961,-479.716 -6.21747,-479.716 L607.467,-479.716 L607.467,-725.19 L-6.21747,-725.19 C-344.971,-725.19 -619.902,-450.259 -619.902,-111.505 L-619.902,502.179 L-374.428,502.179 L-374.428,-111.505 Z " fill="#000000" fill-opacity="1.00" stroke-width="79.06" stroke="#000000" stroke-linecap="square" stroke-linejoin="miter" />				<path d="M-374.428,489.906 C-374.428,286.162 -209.961,121.695 -6.21747,121.695 C-6.21747,121.695 310.087,121.695 482.323,121.695 C654.56,121.695 676.604,-123.779 482.323,-123.779 C288.043,-123.779 -6.21747,-123.779 -6.21747,-123.779 C-344.971,-123.779 -619.902,151.152 -619.902,489.906 C-619.902,489.906 -619.902,423.331 -619.902,594.941 C-619.902,766.552 -374.428,770.648 -374.428,594.941 C-374.428,419.235 -374.428,489.906 -374.428,489.906 Z " fill="#000000" fill-opacity="1.00" stroke-width="79.06" stroke="#000000" stroke-linecap="square" stroke-linejoin="miter" />			</g>		</g>	</svg>