<?xml version="1.0" encoding="utf-8" ?>	<!-- Generator: Assembly 2.2 - http://assemblyapp.co -->	<svg version="1.1" xmlns="http://www.w3.org/2000/svg" xmlns:xlink="http://www.w3.org/1999/xlink" width="2048.00" height="2048.00" viewBox="0 0 2048.0 2048.0">		<g id="document" transform="matrix(1,0,0,1,1024.0,1024.0)">			<path d="M-335.653,-173.078 L95.0955,-173.078 C112.812,-173.078 126.44,-159.45 126.44,-141.733 C126.44,-124.017 112.812,-110.388 95.0955,-110.388 L-335.653,-110.388 L-335.653,-79.0435 L95.0955,-79.0435 C112.812,-79.0435 126.44,-64.0525 126.44,-47.6986 C126.44,-29.982 112.812,-16.3538 95.0955,-16.3538 L-335.653,-16.3538 L-335.653,14.991 L95.0955,14.991 C112.812,14.991 126.44,29.982 126.44,46.3359 C126.44,64.0525 112.812,77.6807 95.0955,77.6807 L-335.653,77.6807 L-335.653,110.388 L95.0955,110.388 C112.812,110.388 126.44,124.017 126.44,141.733 C126.44,159.45 112.812,173.078 95.0955,173.078 L-335.653,173.078 L-335.653,398.06 C-335.653,465.674 -263.21,507.932 -204.048,474.125 L183.523,251.966 C276.491,196.427 335.653,96.2135 335.653,-12.4512 C335.653,-127.153 271.662,-232.195 169.034,-284.113 L-208.878,-476.087 C-266.832,-506.272 -335.653,-464.013 -335.653,-398.815 L-335.653,-173.078 L-335.653,-173.078 Z " fill="#221000" fill-opacity="1.00" />		</g>	</svg>