<?xml version="1.0" encoding="utf-8" ?>	<!-- Generator: Assembly 2.2 - http://assemblyapp.co -->	<svg version="1.1" xmlns="http://www.w3.org/2000/svg" xmlns:xlink="http://www.w3.org/1999/xlink" width="2048.00" height="2048.00" viewBox="0 0 2048.0 2048.0">		<g id="document" transform="matrix(1,0,0,1,1024.0,1024.0)">			<path d="M149.324,558.676 L409.353,409.353 L558.676,149.324 L558.676,-149.324 L409.353,-408.065 L149.324,-558.676 L-149.324,-558.676 L-408.065,-408.065 L-558.676,-149.324 L-558.676,149.324 L-408.065,409.353 L-149.324,558.676 L149.324,558.676 Z M356.189,-73.7492 C356.189,-41.3845 342.395,-12.2031 321.702,9.01969 L321.172,9.55025 C319.049,11.142 318.519,12.2031 315.866,14.3254 L124.33,191.005 L-67.2055,14.856 C-70.3889,11.6725 -76.2252,5.83627 -78.3474,3.71399 C-99.5702,-17.5088 -108.59,-41.3845 -108.59,-73.7492 C-108.59,-139.009 -55.5329,-191.536 9.1966,-191.536 C64.9064,-191.536 111.597,-152.804 123.8,-100.808 C136.533,-153.335 183.224,-191.536 238.403,-191.536 C303.663,-191.536 356.189,-138.479 356.189,-73.7492 Z " fill="#000000" fill-opacity="1.00" />		</g>	</svg>