<?xml version="1.0" encoding="utf-8" ?>	<!-- Generator: Assembly 2.2 - http://assemblyapp.co -->	<svg version="1.1" xmlns="http://www.w3.org/2000/svg" xmlns:xlink="http://www.w3.org/1999/xlink" width="2048.00" height="2048.00" viewBox="0 0 2048.0 2048.0">		<g id="document" transform="matrix(1,0,0,1,1024.0,1024.0)">			<path d="M-358.853,-474.739 C-359.947,-742.176 -363.74,-688.941 -358.582,-691.52 L-596.408,-691.52 L-596.408,-328.606 L-589.783,-328.606 C-593.561,-324.394 -595.696,-319.963 -595.696,-314.82 L-595.696,-279.146 L-595.696,-41.3199 L-595.696,127.324 L-595.696,127.324 C-596.164,128.918 -596.408,130.574 -596.408,132.311 L-596.408,167.985 L-596.408,405.811 L-596.408,694.227 L-358.582,694.227 L-358.582,493.789 L-357.87,493.789 L-357.87,266.712 C-356.12,260.229 -351.405,255.068 -346.69,252.71 L-12.2472,44.6122 C-3.32874,38.6665 5.58975,38.6665 14.5082,44.6122 L347.465,252.71 C353.411,257.169 357.87,263.115 357.87,272.034 L357.87,694.227 L595.696,694.227 L595.696,493.789 L596.408,493.789 L596.408,-41.3199 L596.408,-279.146 L596.408,-314.82 C596.408,-323.739 590.462,-331.171 584.517,-334.144 L13.7337,-690.883 C3.32875,-695.342 -7.07615,-695.342 -13.0218,-690.883 L-358.853,-474.739 L-358.853,-474.739 Z M-357.87,-28.667 L-357.87,-175.097 C-357.87,-184.016 -351.924,-191.448 -345.979,-194.421 L-11.5354,-402.519 C-2.61691,-408.464 6.30158,-408.464 15.2201,-402.519 L348.177,-194.421 C354.123,-189.961 358.582,-184.016 358.582,-175.097 L358.582,-27.7772 L13.0218,-243.752 C2.61692,-248.211 -7.78798,-248.211 -13.7336,-243.752 L-357.87,-28.667 L-357.87,-28.667 Z M120.044,331.313 L-117.783,331.313 L-117.783,694.227 L120.044,694.227 C120.044,263.115 114.098,334.286 120.044,331.313 Z " fill="#000000" fill-opacity="1.00" />		</g>	</svg>