<?xml version="1.0" encoding="utf-8"?>
<!-- Generator: Adobe Illustrator 22.0.1, SVG Export Plug-In . SVG Version: 6.00 Build 0)  -->
<svg version="1.1" id="Layer_1" xmlns="http://www.w3.org/2000/svg" xmlns:xlink="http://www.w3.org/1999/xlink" x="0px" y="0px"
	 viewBox="0 0 225 225" style="enable-background:new 0 0 225 225;" xml:space="preserve">
<style type="text/css">
	.st0{fill-rule:evenodd;clip-rule:evenodd;}
</style>
<path class="st0" d="M182.5,89.4l11.8,11.8c1.9,1.9,1.9,3.7,0,5.5l-13.4,13.4c-1.9,1.9-3.7,1.9-5.6,0l-46.6-46.6L82.3,120
	c-0.4,0.4-0.8,0.7-1.1,0.9l-42.2,42.2c-1.9,1.9-3.7,1.9-5.6,0l-13.4-13.4c-1.8-1.8-1.8-3.7,0-5.5l47.9-47.9h0.2l43.2-43.2h0.3
	l6.1-6.1c3.6-3.6,7.2-5.4,10.8-5.5c0.2,0,0.3,0,0.5,0c2.7,0.1,5.4,1.1,8.1,3.2l10.7,9.9l-0.1,0.1l18.2,18.2V62.4
	c0-2.6,1.3-3.9,3.9-3.9h8.8c2.6,0,3.9,1.3,3.9,3.9V89.4z M114.1,133.9c3.9-3.9,8.6-5.8,14.1-5.8c5.5,0,10.2,1.9,14.1,5.8
	c3.9,3.9,5.9,8.6,5.9,14.1c0,5.5-2,10.2-5.9,14.1c-3.9,3.9-8.6,5.9-14.1,5.9c-5.5,0-10.2-2-14.1-5.9c-3.9-3.9-5.8-8.6-5.8-14.1
	C108.3,142.5,110.2,137.8,114.1,133.9z"/>
</svg>
