<?xml version="1.0" encoding="utf-8" ?>	<!-- Generator: Assembly 2.2 - http://assemblyapp.co -->	<svg version="1.1" xmlns="http://www.w3.org/2000/svg" xmlns:xlink="http://www.w3.org/1999/xlink" width="2048.00" height="2048.00" viewBox="0 0 2048.0 2048.0">		<g id="document" transform="matrix(1,0,0,1,1024.0,1024.0)">			<g>				<g>					<path d="M-686.153,-171.18 C-624.542,-139.495 -545.328,-185.263 -492.519,-135.974 C-437.95,-84.9252 -312.968,105.188 -312.968,105.188 L-224.953,-32.1161 L-87.6495,-120.131 C-87.6495,-120.131 -279.523,-245.113 -328.811,-299.682 C-378.1,-350.731 -334.092,-429.945 -364.017,-493.316 C-395.703,-556.686 -480.197,-609.496 -562.931,-544.364 C-619.261,-507.398 -603.418,-459.87 -610.46,-417.623 C-650.947,-414.102 -696.714,-431.705 -737.202,-370.094 C-804.093,-282.079 -756.565,-206.386 -686.153,-171.18 Z " fill="#000000" fill-opacity="1.00" />					<path d="M426.965,626.346 C426.965,626.346 431.898,621.413 433.131,620.18 C608.259,445.052 605.792,156.461 426.965,-22.3666 C334.468,-114.864 253.07,-177.762 11.3445,-191.328 C-88.5523,-197.494 -168.716,-206.127 -235.314,-223.394 C-268.613,-232.027 -253.814,-203.661 -326.578,-130.896 C-399.342,-58.1321 -427.708,-72.9316 -419.075,-39.6327 C-401.809,26.9652 -393.176,107.129 -387.009,207.026 C-373.443,447.518 -309.312,528.916 -218.048,621.413 C-36.7539,800.24 250.604,802.707 426.965,626.346 Z M-152.684,409.286 C-185.982,409.286 -188.449,313.089 -188.449,193.46 C-188.449,73.8304 -189.682,-22.3666 -152.684,-22.3666 C-114.451,-22.3666 -116.918,73.8303 -116.918,193.46 C-116.918,313.089 -113.218,409.286 -152.684,409.286 Z M154.407,600.447 C121.108,600.447 118.641,451.218 118.641,267.458 C118.641,83.6967 117.408,-65.5318 154.407,-65.5318 C192.639,-65.5318 190.172,83.6967 190.172,267.458 C191.406,451.218 193.872,600.447 154.407,600.447 Z M1.47824,600.447 C-31.8207,600.447 -34.2873,451.218 -34.2873,267.458 C-34.2873,83.6967 -35.5206,-65.5318 1.47822,-65.5318 C39.7103,-65.5318 37.2438,83.6967 37.2438,267.458 C37.2438,451.218 40.9437,600.447 1.47824,600.447 Z M308.568,543.715 C275.269,543.715 272.803,443.818 272.803,321.722 C272.803,199.626 271.57,99.7295 308.568,99.7295 C346.801,99.7295 344.334,199.626 344.334,321.722 C344.334,443.818 348.034,543.715 308.568,543.715 Z " fill="#000000" fill-opacity="1.00" />				</g>				<path d="M-17.7041,-543.757 C-63.8864,-619.848 -136.019,-637.441 -173.404,-756.635 C-194.956,-695.939 -241.578,-604.894 -186.159,-518.687 C-152.732,-466.347 -62.1271,-406.53 -44.9736,-316.804 C25.3993,-400.372 10.4451,-497.575 -17.7041,-543.757 Z " fill="#000000" fill-opacity="1.00" />				<path d="M161.184,-717.994 C124.297,-778.769 66.6827,-792.822 36.8218,-888.025 C19.6078,-839.545 -17.6306,-766.825 26.6339,-697.969 C53.3331,-656.164 125.702,-608.386 139.403,-536.72 C195.612,-603.468 183.667,-681.106 161.184,-717.994 Z " fill="#000000" fill-opacity="1.00" />				<path d="M238.218,-468.976 C294.89,-542.26 371.549,-552.008 424.171,-670.9 C439.352,-605.604 476.907,-505.986 409.498,-423.321 C368.798,-373.106 268.09,-321.854 239.843,-231.069 C176.85,-325.735 203.698,-424.511 238.218,-468.976 Z " fill="#000000" fill-opacity="1.00" />			</g>		</g>	</svg>