<?xml version="1.0" encoding="utf-8" ?>	<!-- Generator: Assembly 2.2 - http://assemblyapp.co -->	<svg version="1.1" xmlns="http://www.w3.org/2000/svg" xmlns:xlink="http://www.w3.org/1999/xlink" width="2048.00" height="2048.00" viewBox="0 0 2048.0 2048.0">		<g id="document" transform="matrix(1,0,0,1,1024.0,1024.0)">			<path d="M-522.257,-301.377 L-522.257,316.669 C-522.257,598.312 -294.907,825.662 -13.2643,825.662 C268.379,825.662 495.729,598.312 495.729,316.669 L495.729,-301.377 C495.729,-301.377 156.4,-285.167 156.4,80.9086 C156.4,446.985 156.4,316.669 156.4,316.669 C156.4,409.984 80.0511,486.333 -13.2643,486.333 C-106.58,486.333 -182.929,409.984 -182.929,316.669 L-182.929,-301.377 L-522.257,-301.377 Z " fill="#000000" fill-opacity="1.00" />			<path d="M-336.035,-425.17 C-233.123,-425.17 -149.813,-508.479 -149.813,-611.392 C-149.813,-714.304 -233.123,-797.614 -336.035,-797.614 C-438.947,-797.614 -522.257,-714.304 -522.257,-611.392 C-522.257,-508.479 -438.947,-425.17 -336.035,-425.17 Z " fill="#000000" fill-opacity="1.00" />		</g>	</svg>