<?xml version="1.0" encoding="utf-8" ?>	<!-- Generator: Assembly 2.2 - http://assemblyapp.co -->	<svg version="1.1" xmlns="http://www.w3.org/2000/svg" xmlns:xlink="http://www.w3.org/1999/xlink" width="2048.00" height="2048.00" viewBox="0 0 2048.0 2048.0">		<g id="document" transform="matrix(1,0,0,1,1024.0,1024.0)">			<path d="M406.148,404.149 C489.946,370.402 549.336,288.404 549.336,192.117 C549.336,133.448 526.949,80.1836 491.44,39.2701 C527.721,-0.871406 549.336,-54.9081 549.336,-113.577 C549.336,-240.177 447.438,-342.075 320.838,-342.075 C257.155,-342.075 199.723,-316.291 158.366,-274.549 C117.01,-316.291 59.5775,-342.075 -4.10553,-342.075 C-65.7075,-342.075 -121.461,-317.949 -162.472,-278.59 L-162.472,-278.59 C-203.483,-317.949 -259.236,-342.075 -320.838,-342.075 C-447.438,-342.075 -549.336,-240.177 -549.336,-113.577 C-549.336,-54.9081 -526.949,-1.64336 -491.44,39.2701 C-527.721,79.4117 -549.336,133.448 -549.336,192.117 C-549.336,285.712 -493.643,365.806 -413.449,401.206 C-422.931,427.905 -428.089,456.688 -428.089,486.722 C-428.089,627.478 -314.798,740.769 -174.042,740.769 C-108.814,740.769 -49.5937,715.88 -4.10553,676.399 C40.5243,716.738 100.603,740.769 165.831,740.769 C306.587,740.769 419.878,627.478 419.878,486.722 C419.878,457.841 415.05,430.057 406.148,404.149 L406.148,404.149 Z M-277.525,254.484 C-284.666,257.655 -291.63,261.145 -298.402,264.936 C-305.71,267.274 -313.505,268.54 -321.61,268.54 C-363.295,267.768 -398.033,233.802 -398.033,192.117 C-398.033,150.431 -364.067,115.693 -321.61,115.693 C-279.925,115.693 -245.187,149.659 -245.187,192.117 C-245.187,217.634 -257.914,240.548 -277.525,254.484 L-277.525,254.484 Z M-81.3008,-113.577 C-81.3008,-155.262 -47.3349,-190 -4.87748,-190 C36.808,-190 71.5458,-156.034 71.5458,-113.577 C71.5458,-71.1191 37.5799,-37.1532 -4.87748,-37.1532 C-46.5629,-37.1532 -81.3008,-71.1191 -81.3008,-113.577 Z M-81.3008,192.117 C-81.3008,150.431 -47.3349,115.693 -4.87747,115.693 C36.808,115.693 71.5458,149.659 71.5458,192.117 C71.5459,233.802 37.5799,268.54 -4.87747,268.54 C-46.5629,267.768 -81.3008,233.802 -81.3008,192.117 Z M-398.033,-113.577 C-398.033,-155.262 -364.067,-190 -321.61,-190 C-279.925,-190 -245.187,-156.034 -245.187,-113.577 C-245.187,-71.1191 -279.153,-37.1532 -321.61,-37.1532 C-363.295,-37.1532 -398.033,-71.1191 -398.033,-113.577 Z M243.643,-113.576 C243.643,-155.262 277.609,-190 320.066,-190 C361.752,-190 396.489,-156.034 396.489,-113.577 C396.489,-71.1191 362.524,-37.1532 320.066,-37.1532 C278.381,-37.1532 243.643,-71.1191 243.643,-113.576 Z M243.643,192.117 C243.643,150.431 277.609,115.693 320.066,115.693 C361.752,115.693 396.489,149.659 396.489,192.117 C396.489,233.802 362.524,268.54 320.066,268.54 C278.381,267.768 243.643,233.802 243.643,192.117 Z M-174.042,572.549 C-220.389,572.549 -259.011,534.785 -259.011,487.581 C-259.011,441.234 -221.247,402.612 -174.042,402.612 C-126.838,402.612 -89.0739,440.376 -89.0739,487.581 C-89.0739,533.927 -126.838,572.549 -174.042,572.549 Z M165.831,572.549 C119.485,572.549 80.8629,534.785 80.8629,487.581 C80.8629,441.234 118.627,402.612 165.831,402.612 C212.178,402.612 250.8,440.376 250.8,487.581 C249.941,533.927 212.178,572.549 165.831,572.549 Z " fill="#000000" fill-opacity="1.00" />			<path d="M57.807,-596.812 C55.5572,-697.412 -26.451,-778.02 -127.599,-778.02 L-316.081,-778.02 L-316.081,-589.539 C-316.081,-486.972 -233.194,-404.085 -130.627,-404.085 L51.6694,-404.085 L181.878,-404.085 C256.1,-404.085 316.081,-464.066 316.081,-538.288 L316.081,-674.682 L179.687,-674.682 C125.594,-674.682 79.0658,-642.823 57.807,-596.812 L57.807,-596.812 Z " fill="#030303" fill-opacity="1.00" />		</g>	</svg>