<?xml version="1.0" encoding="utf-8" ?>	<!-- Generator: Assembly 2.2 - http://assemblyapp.co -->	<svg version="1.1" xmlns="http://www.w3.org/2000/svg" xmlns:xlink="http://www.w3.org/1999/xlink" width="2048.00" height="2048.00" viewBox="0 0 2048.0 2048.0">		<g id="document" transform="matrix(1,0,0,1,1024.0,1024.0)">			<path d="M573.902,223.954 L573.902,-223.953 L308.501,-223.953 L308.501,223.954 C308.501,394.083 170.129,532.454 1.08165e-05,532.454 L1.08165e-05,797.856 C317.574,795.587 573.902,541.528 573.902,223.954 Z M-573.902,-37.8104 C-573.902,279.764 -317.574,533.823 1.08165e-05,536.092 L1.08165e-05,270.69 C-170.129,270.69 -308.501,132.319 -308.501,-37.8104 L-308.501,-221.518 L-573.902,-221.518 L-573.902,-37.8104 Z M-3.24495e-05,-795.42 C-317.574,-795.42 -571.634,-539.092 -573.902,-221.518 L-308.501,-221.518 C-308.501,-391.647 -170.129,-530.019 -3.24495e-05,-530.019 L-3.24495e-05,-795.42 Z M1.08165e-05,-797.856 L1.08165e-05,-532.454 C170.129,-532.454 308.501,-394.083 308.501,-223.953 L573.902,-223.953 C571.634,-541.528 317.574,-797.856 1.08165e-05,-797.856 Z " fill="#0e0c08" fill-opacity="1.00" />		</g>	</svg>