<?xml version="1.0" encoding="utf-8" ?>	<!-- Generator: Assembly 2.2 - http://assemblyapp.co -->	<svg version="1.1" xmlns="http://www.w3.org/2000/svg" xmlns:xlink="http://www.w3.org/1999/xlink" width="2048.00" height="2048.00" viewBox="0 0 2048.0 2048.0">		<g id="document" transform="matrix(1,0,0,1,1024.0,1024.0)">			<path d="M-6.65534,-489.027 C-190.304,-486.754 -338.648,-337.006 -338.648,-152.821 L-338.648,265.244 C-368.847,286.288 -388.594,321.273 -388.594,360.904 C-388.594,425.292 -336.471,477.416 -272.083,477.416 C-207.696,477.416 -155.572,425.292 -155.572,360.904 C-155.572,321.873 -174.726,287.348 -204.155,266.209 L-204.155,-152.821 C-204.155,-264.45 -114.045,-354.56 -2.41641,-354.56 L-2.41641,-354.56 L70.4338,-354.56 C182.063,-354.56 272.173,-264.45 272.173,-152.822 C272.173,-41.1927 182.063,48.9173 70.4338,48.9173 L64.4581,48.9173 C43.2478,20.1811 9.14126,1.55613 -29.3476,1.55613 C-93.7353,1.55613 -145.859,53.6795 -145.859,118.067 C-145.859,182.455 -93.7353,234.578 -29.3476,234.578 C10.8158,234.578 46.2071,214.298 67.1525,183.41 L67.1525,183.41 L70.4338,183.41 C256.034,183.41 406.665,32.7782 406.665,-152.822 C406.665,-338.421 256.034,-489.053 70.4338,-489.053 L-6.65534,-489.053 L-6.65534,-489.027 L-6.65534,-489.027 Z " fill="#000000" fill-opacity="1.00" />		</g>	</svg>