<?xml version="1.0" encoding="utf-8" ?>	<!-- Generator: Assembly 2.2 - http://assemblyapp.co -->	<svg version="1.1" xmlns="http://www.w3.org/2000/svg" xmlns:xlink="http://www.w3.org/1999/xlink" width="2048.00" height="2048.00" viewBox="0 0 2048.0 2048.0">		<g id="document" transform="matrix(1,0,0,1,1024.0,1024.0)">			<path d="M-75.6387,27.0845 L-75.6387,513.407 C146.13,514.211 326.115,334.225 326.115,111.653 C326.115,-159.916 326.115,-25.0921 326.115,-101.849 C326.115,-322.814 146.933,-503.604 -75.6387,-503.604 L-75.6387,-415.218 C12.7472,-415.218 85.0629,-342.902 85.0629,-254.516 C85.0629,-166.13 12.7472,-93.8144 -75.6387,-93.8144 L-75.6387,27.0845 L-75.6387,27.0845 Z " fill="#000000" fill-opacity="1.00" />			<path d="M-36.0547,-188.431 C1.83464,-210.307 14.7983,-258.688 -7.07712,-296.577 C-28.9525,-334.466 -77.3335,-347.43 -115.223,-325.554 C-153.112,-303.679 -166.076,-255.298 -144.2,-217.409 C-122.325,-179.519 -73.944,-166.556 -36.0547,-188.431 Z " fill="#000000" fill-opacity="1.00" />			<path d="M-222.199,-415.378 L-380.584,-256.993 L-222.199,-98.6076 L-222.199,-415.378 Z " fill="#000000" fill-opacity="1.00" />		</g>	</svg>