<?xml version="1.0" encoding="utf-8"?>
<!-- Generator: Adobe Illustrator 22.0.1, SVG Export Plug-In . SVG Version: 6.00 Build 0)  -->
<svg version="1.1" id="Layer_1" xmlns="http://www.w3.org/2000/svg" xmlns:xlink="http://www.w3.org/1999/xlink" x="0px" y="0px"
	 viewBox="0 0 229 229" style="enable-background:new 0 0 229 229;" xml:space="preserve">
<style type="text/css">
	.st0{fill-rule:evenodd;clip-rule:evenodd;fill:none;stroke:#000000;stroke-width:20;stroke-linecap:square;stroke-miterlimit:3;}
	
		.st1{fill-rule:evenodd;clip-rule:evenodd;fill:none;stroke:#000000;stroke-width:20;stroke-linecap:round;stroke-linejoin:round;stroke-miterlimit:3;}
	.st2{fill-rule:evenodd;clip-rule:evenodd;fill:none;stroke:#000000;stroke-width:20;stroke-linecap:round;stroke-miterlimit:3;}
</style>
<g>
	<path class="st0" d="M62.4,141c-11.3-14.2-17-30-17-47.5c0-18.5,6.5-34.3,19.5-47.3c12.8-12.7,28.3-19.2,46.4-19.5
		c18.1,0.2,33.6,6.7,46.5,19.5c13,13,19.5,28.8,19.5,47.3c0,17.5-5.7,33.3-17.1,47.5l-25.4,30.4c0,0-3.9,1.2-6-1
		c-0.9-0.9-36.3-46.3-36.3-46.3"/>
	<path class="st1" d="M88.3,119c-1.9-2-3.2-4.2-4-6.6c-0.8-2.4-1.1-5-0.8-7.7c0.3-5.5,2.5-10,6.7-13.6c4.1-3.5,8.8-4.9,14.1-4.4
		c3.2,0.2,6,1,8.5,2.7c1.8,1,3.4,2.3,4.8,3.9l21.2,24.5"/>
	<path class="st2" d="M131.6,175.4L88.3,119 M111.4,196.9l-49-55.9"/>
</g>
</svg>
