<?xml version="1.0" encoding="utf-8"?>
<!-- Generator: Adobe Illustrator 22.0.1, SVG Export Plug-In . SVG Version: 6.00 Build 0)  -->
<svg version="1.1" id="Layer_1" xmlns="http://www.w3.org/2000/svg" xmlns:xlink="http://www.w3.org/1999/xlink" x="0px" y="0px"
	 viewBox="0 0 229 229" style="enable-background:new 0 0 229 229;" xml:space="preserve">
<g transform="matrix( 1, 0, 0, 1, 0,0) ">
	<g>
		<g id="Layer0_0_FILL">
			<path d="M132.5,110.1c4.7-4.7,7-10.3,6.9-17c0-6.6-2.3-12.2-7-16.9c-4.7-4.7-10.3-7.1-16.9-7.1v24l-17-17
				c-4.7,4.7-7.1,10.3-7.1,17c0,6.6,2.4,12.2,7.1,17c4.7,4.7,10.3,7,16.9,7C122.1,117.1,127.8,114.8,132.5,110.1 M181.4,90
				c0-0.3,0-0.6,0-1c-0.2-18-6.7-33.5-19.5-46.3c-7.5-7.5-15.9-12.9-25.2-16.1c0,0-0.1,0-0.2,0c-6.7-2.3-13.9-3.5-21.5-3.5
				c-0.1,0-0.3,0-0.4,0c-7.8,0-15.2,1.2-22.1,3.5c-0.1,0.1-0.2,0.1-0.4,0.2c-9.2,3.2-17.5,8.5-24.9,15.9C54.4,55.5,47.9,71,47.6,89
				c0,0.3,0,0.6,0,1c0,2.7,0.2,5.3,0.5,7.9c0.2,2.2,0.6,4.5,1,6.7c1.6,7.3,4.3,14.1,8.2,20.4c0.6,1,1.3,2,2,3l48.6,74
				c0.1,0.1,0.2,0.2,0.3,0.4c0.3,0.4,0.6,0.8,1,1.1c1.6,1.6,3.5,2.4,5.7,2.4h0.1c2.2-0.1,4.1-0.9,5.6-2.4c0.4-0.4,0.8-0.9,1.1-1.4
				c0.1-0.1,0.2-0.3,0.2-0.4l35-54l-22-22c-5.8,3.6-12.4,5.5-19.8,5.5c-10.4,0-19.3-3.7-26.6-11c-7.4-7.4-11-16.3-11.1-26.7
				c0-10.4,3.7-19.3,11-26.7c7.4-7.4,16.2-11,26.7-11c10.4,0,19.3,3.7,26.7,11.1c7.4,7.4,11,16.2,11,26.6c0,7.1-1.7,13.4-5.1,19.1
				l19.4,19.4l2.7-4.2c0.6-0.9,1.3-1.9,1.9-2.9c4-6.5,6.8-13.5,8.2-21c0.4-1.8,0.7-3.6,1-5.4c0-0.2,0-0.4,0.1-0.7
				C181.3,95.3,181.4,92.7,181.4,90z"/>
		</g>
	</g>
</g>
</svg>
