<?xml version="1.0" encoding="utf-8"?>
<!-- Generator: Adobe Illustrator 22.0.1, SVG Export Plug-In . SVG Version: 6.00 Build 0)  -->
<svg version="1.1" id="Layer_1" xmlns="http://www.w3.org/2000/svg" xmlns:xlink="http://www.w3.org/1999/xlink" x="0px" y="0px"
	 viewBox="0 0 229 229" style="enable-background:new 0 0 229 229;" xml:space="preserve">
<g transform="matrix( 1, 0, 0, 1, 0,0) ">
	<g>
		<g id="Layer0_0_FILL">
			<path d="M176.8,39.9c0-4.2-1.6-7.7-4.6-10.5c-3.1-2.9-6.8-4.1-11-3.8c-26.2,2.3-50.7,10-73.4,23.3c-22,13-40.4,30-55.2,51
				c-2.4,3.6-3.1,7.5-2.1,11.6c0.9,4.1,3.1,7.1,6.7,9.1l43.2,24.9V181c0,1.9,0.7,3.6,2.1,5s3,2,4.9,2c1.9,0,3.6-0.7,4.9-2
				c1.3-1.4,1.9-3,1.9-5V177c0-1.9,0.7-3.6,2.1-5c1.4-1.4,3-2,4.9-2c1.9,0,3.6,0.7,5,2s2,3,2,5v26.9c0,1.9,0.7,3.6,2.1,5
				c1.4,1.4,3.1,2,4.9,2c1.9,0,3.6-0.7,5-2c1.4-1.4,2-3,2-5v-17.8c0-1.9,0.7-3.6,2-5c1.4-1.4,3-2,4.9-2c1.9,0,3.6,0.7,5,2
				c1.4,1.4,2,3,2,5v5.2c0,1.9,0.7,3.5,2.1,4.9c1.4,1.4,3,2,4.9,2c1.9,0,3.5-0.7,4.9-2s2-3,2-4.9v-5.4l13.4,7.7c3,1.7,5.9,1.7,8.9,0
				c3-1.7,4.5-4.3,4.5-7.8V39.9 M119.6,87.8c2-3.5,5-5.8,8.9-6.8c4-1.1,7.7-0.6,11.2,1.4c3.5,2,5.8,5.1,6.8,9.1
				c1.1,3.9,0.6,7.7-1.5,11.2c-2,3.5-5,5.8-9,6.8c-4,1-7.7,0.5-11.2-1.5c-3.5-2.1-5.8-5.1-6.9-8.9C117,95.1,117.6,91.3,119.6,87.8
				 M135.6,151.8c-1-4-0.5-7.7,1.5-11.2c2-3.5,5-5.8,9-6.8c3.9-1.1,7.7-0.6,11.2,1.4c3.5,2,5.8,5.1,6.8,9.1c1.1,4,0.6,7.7-1.5,11.2
				c-2,3.5-5,5.8-9,6.9c-3.9,1-7.7,0.5-11.2-1.5C138.9,158.6,136.6,155.6,135.6,151.8 M77.6,91.1c3.9-1,7.6-0.5,11.1,1.5
				c3.5,2.1,5.8,5.1,6.9,9.1c1.1,4,0.6,7.7-1.5,11.2c-2.1,3.5-5.1,5.8-9,6.9c-3.9,1-7.7,0.5-11.2-1.5c-3.5-2-5.8-5-6.9-9
				c-1-3.9-0.5-7.7,1.6-11.2C70.7,94.5,73.7,92.2,77.6,91.1z"/>
		</g>
	</g>
</g>
</svg>
