<?xml version="1.0" encoding="utf-8"?>
<!-- Generator: Adobe Illustrator 22.0.1, SVG Export Plug-In . SVG Version: 6.00 Build 0)  -->
<svg version="1.1" id="Layer_1" xmlns="http://www.w3.org/2000/svg" xmlns:xlink="http://www.w3.org/1999/xlink" x="0px" y="0px"
	 viewBox="0 0 229 229" style="enable-background:new 0 0 229 229;" xml:space="preserve">
<style type="text/css">
	.st0{fill-rule:evenodd;clip-rule:evenodd;fill:none;stroke:#000000;stroke-width:16;stroke-miterlimit:3;}
</style>
<path class="st0" d="M183.4,45.9l-26.5,26.5c0.7,0.5,1.2,1,1.6,1.6c15.4,15.3,23.2,33.8,23.2,55.5c0,21.7-7.7,40.2-23.2,55.5
	c-15.3,15.3-33.8,23-55.3,23c-21.7,0-40.2-7.7-55.5-23c-0.6-0.6-1.3-1.3-1.9-1.9l26.5-26.3c-0.5-0.5-1-1.1-1.5-1.8
	c-15.3-15.3-23-33.8-23-55.5s7.7-40.2,23-55.6c15.3-15.3,33.8-23,55.5-23c21.6,0,40.1,7.7,55.5,23C182.1,44.6,182.7,45.3,183.4,45.9
	z M72.1,156.8l84.6-84.6l0.2,0.2l-84.5,84.4H72.1z"/>
</svg>
