<?xml version="1.0" encoding="utf-8"?>
<!-- Generator: Adobe Illustrator 22.0.1, SVG Export Plug-In . SVG Version: 6.00 Build 0)  -->
<svg version="1.1" id="Layer_1" xmlns="http://www.w3.org/2000/svg" xmlns:xlink="http://www.w3.org/1999/xlink" x="0px" y="0px"
	 viewBox="0 0 229 229" style="enable-background:new 0 0 229 229;" xml:space="preserve">
<g transform="matrix( 1, 0, 0, 1, 128,27) ">
	<g>
		<g id="Layer0_0_MEMBER_0_FILL">
			<path d="M-84.1,15.3h-8.3v74.3h8.3V15.3z"/>
		</g>
	</g>
</g>
<g transform="matrix( 1, 0, 0, 1, 128,27) ">
	<g>
		<g id="Layer0_0_MEMBER_1_FILL">
			<path d="M-67.5,15.3h-8.4v74.3h8.4V15.3z"/>
		</g>
	</g>
</g>
<g transform="matrix( 1, 0, 0, 1, 128,27) ">
	<g>
		<g id="Layer0_0_MEMBER_2_FILL">
			<path d="M-59.4,15.3v74.3h8.4V15.3H-59.4z"/>
		</g>
	</g>
</g>
<g transform="matrix( 1, 0, 0, 1, 128,27) ">
	<g>
		<g id="Layer0_0_MEMBER_3_FILL">
			<path d="M-34.5,15.3h-8.3v74.3h8.3V15.3z"/>
		</g>
	</g>
</g>
<g transform="matrix( 1, 0, 0, 1, 128,27) ">
	<g>
		<g id="Layer0_0_MEMBER_4_FILL">
			<path d="M-18,15.3h-8.4v74.3h8.4V15.3z"/>
		</g>
	</g>
</g>
<g transform="matrix( 1, 0, 0, 1, 128,27) ">
	<g>
		<g id="Layer0_0_MEMBER_5_FILL">
			<path d="M63.4,89.7v-8.4h-74.3v8.4H63.4z"/>
		</g>
	</g>
</g>
<g transform="matrix( 1, 0, 0, 1, 128,27) ">
	<g>
		<g id="Layer0_0_MEMBER_6_FILL">
			<path d="M63.4,73.2v-8.4h-74.3v8.4H63.4z"/>
		</g>
	</g>
</g>
<g transform="matrix( 1, 0, 0, 1, 128,27) ">
	<g>
		<g id="Layer0_0_MEMBER_7_FILL">
			<path d="M63.4,56.7v-8.3h-74.3v8.3H63.4z"/>
		</g>
	</g>
</g>
<g transform="matrix( 1, 0, 0, 1, 128,27) ">
	<g>
		<g id="Layer0_0_MEMBER_8_FILL">
			<path d="M63.4,40.2v-8.4h-74.3v8.4H63.4z"/>
		</g>
	</g>
</g>
<g transform="matrix( 1, 0, 0, 1, 128,27) ">
	<g>
		<g id="Layer0_0_MEMBER_9_FILL">
			<path d="M63.4,23.6v-8.4h-74.3v8.4H63.4z"/>
		</g>
	</g>
</g>
<g transform="matrix( 1, 0, 0, 1, 128,27) ">
	<g>
		<g id="Layer0_0_MEMBER_10_FILL">
			<path d="M63.4,89.7H55v74.3h8.4V89.7z"/>
		</g>
	</g>
</g>
<g transform="matrix( 1, 0, 0, 1, 128,27) ">
	<g>
		<g id="Layer0_0_MEMBER_11_FILL">
			<path d="M46.9,89.7h-8.4v74.3h8.4V89.7z"/>
		</g>
	</g>
</g>
<g transform="matrix( 1, 0, 0, 1, 128,27) ">
	<g>
		<g id="Layer0_0_MEMBER_12_FILL">
			<path d="M30.3,89.7H22v74.3h8.3V89.7z"/>
		</g>
	</g>
</g>
<g transform="matrix( 1, 0, 0, 1, 128,27) ">
	<g>
		<g id="Layer0_0_MEMBER_13_FILL">
			<path d="M13.9,164.1V89.7H5.5v74.3H13.9z"/>
		</g>
	</g>
</g>
<g transform="matrix( 1, 0, 0, 1, 128,27) ">
	<g>
		<g id="Layer0_0_MEMBER_14_FILL">
			<path d="M-2.7,89.7h-8.4v74.3h8.4V89.7z"/>
		</g>
	</g>
</g>
<g transform="matrix( 1, 0, 0, 1, 128,27) ">
	<g>
		<g id="Layer0_0_MEMBER_15_FILL">
			<path d="M-18.1,164.2v-8.4h-74.3v8.4H-18.1z"/>
		</g>
	</g>
</g>
<g transform="matrix( 1, 0, 0, 1, 128,27) ">
	<g>
		<g id="Layer0_0_MEMBER_16_FILL">
			<path d="M-18.1,147.6v-8.3h-74.3v8.3H-18.1z"/>
		</g>
	</g>
</g>
<g transform="matrix( 1, 0, 0, 1, 128,27) ">
	<g>
		<g id="Layer0_0_MEMBER_17_FILL">
			<path d="M-18.1,131.1v-8.4h-74.3v8.4H-18.1z"/>
		</g>
	</g>
</g>
<g transform="matrix( 1, 0, 0, 1, 128,27) ">
	<g>
		<g id="Layer0_0_MEMBER_18_FILL">
			<path d="M-92.4,106.2v8.4h74.3v-8.4H-92.4z"/>
		</g>
	</g>
</g>
<g transform="matrix( 1, 0, 0, 1, 128,27) ">
	<g>
		<g id="Layer0_0_MEMBER_19_FILL">
			<path d="M-92.4,89.7v8.3h74.3v-8.3H-92.4z"/>
		</g>
	</g>
</g>
</svg>
