<?xml version="1.0" encoding="utf-8" ?>	<!-- Generator: Assembly 2.2 - http://assemblyapp.co -->	<svg version="1.1" xmlns="http://www.w3.org/2000/svg" xmlns:xlink="http://www.w3.org/1999/xlink" width="2048.00" height="2048.00" viewBox="0 0 2048.0 2048.0">		<g id="document" transform="matrix(1,0,0,1,1024.0,1024.0)">			<path d="M-413.758,244.094 L-146.417,-17.4933 L-217.834,-59.6424 C-250.462,-78.9097 -241.319,-128.499 -204.278,-135.09 L-109.854,-151.728 C-93.7625,-154.553 -80.6118,-166.936 -76.9026,-182.912 L-55.8513,-276.637 C-47.7032,-313.912 2.40713,-320.272 20.2232,-286.637 L65.3739,-202.099 C73.2063,-187.403 88.7516,-179.284 105.308,-180.441 L200.838,-189.64 C238.502,-193.498 260.488,-147.883 233.897,-120.685 L167.272,-51.4735 C155.79,-39.5562 152.546,-21.9109 159.167,-6.60041 L197.193,81.1694 C212.128,115.884 175.856,151.038 141.876,134.361 L90.3851,109.383 L-261.458,453.654 C-80.5463,541.817 227.769,399.225 378.149,138.76 C491.854,-58.1823 424.142,-310.885 227.2,-424.59 C30.2572,-538.295 -222.446,-470.583 -336.15,-273.641 C-432.727,-106.366 -454.63,93.0139 -413.758,244.094 Z " fill="#000000" fill-opacity="1.00" />			<path d="M-353.458,434.186 L-34.8198,115.548 L-98.3272,52.0409 L-416.965,370.679 L-353.458,434.186 Z " fill="#000000" fill-opacity="1.00" />		</g>	</svg>