<?xml version="1.0" encoding="utf-8" ?>	<!-- Generator: Assembly 2.2 - http://assemblyapp.co -->	<svg version="1.1" xmlns="http://www.w3.org/2000/svg" xmlns:xlink="http://www.w3.org/1999/xlink" width="2048.00" height="2048.00" viewBox="0 0 2048.0 2048.0">		<g id="document" transform="matrix(1,0,0,1,1024.0,1024.0)">			<path d="M-352.947,-726.009 L-201.161,-352.947 L-107.896,-391.35 L-259.681,-764.413 L-352.947,-726.009 Z M-605.312,-533.992 L-320.029,-248.708 L-248.708,-320.029 L-533.992,-605.312 L-605.312,-533.992 Z M-764.413,-263.338 L-393.179,-106.067 L-352.947,-199.332 L-724.18,-356.604 L-764.413,-263.338 Z M-806.474,51.2047 L-404.151,51.2047 L-404.151,-49.3759 L-806.474,-49.3759 L-806.474,51.2047 Z M-724.18,356.604 L-352.947,199.332 L-393.179,106.067 L-764.413,263.338 L-724.18,356.604 Z M-533.992,605.312 L-248.708,320.029 L-320.029,248.708 L-605.312,533.992 L-533.992,605.312 Z M-263.338,764.413 L-106.067,393.179 L-199.332,352.947 L-356.604,724.18 L-263.338,764.413 Z M51.2047,806.474 L51.2047,404.151 L-49.3759,404.151 L-49.3759,806.474 L51.2047,806.474 Z M352.947,726.009 L201.161,352.947 L107.896,391.35 L259.681,764.413 L352.947,726.009 Z M605.312,533.992 L320.029,248.708 L248.708,320.029 L533.992,605.312 L605.312,533.992 Z M764.413,263.338 L393.179,106.067 L352.947,199.332 L724.18,356.604 L764.413,263.338 Z M806.474,-51.2047 L404.151,-51.2047 L404.151,49.3759 L806.474,49.3759 L806.474,-51.2047 Z M726.009,-352.947 L352.947,-201.161 L391.35,-107.896 L764.413,-259.681 L726.009,-352.947 Z M533.992,-605.312 L248.708,-320.029 L320.029,-248.708 L605.312,-533.992 L533.992,-605.312 Z M263.338,-764.413 L106.067,-393.179 L199.332,-352.947 L356.604,-724.18 L263.338,-764.413 Z M-51.2047,-806.474 L-51.2047,-404.151 L49.3759,-404.151 L49.3759,-806.474 L-51.2047,-806.474 Z " fill="#000000" fill-opacity="1.00" stroke-width="8.44" stroke="#000000" stroke-linecap="round" stroke-linejoin="round" />			<path d="M59.2995,-47.5536 C45.3075,-61.5456 25.3189,-70.8737 2.66515,-70.8737 C-19.3223,-70.8737 -37.9783,-62.8782 -53.9692,-47.5536 L-313.155,-47.5536 L-313.155,-1.57986 L-313.155,29.7356 C-313.155,111.023 -247.192,174.32 -168.57,174.32 C-89.9487,174.32 -23.9863,108.357 -23.9863,29.7356 L-23.9863,-15.5719 C-17.9897,-21.5685 -9.9943,-24.8999 -0.666286,-24.8999 C8.66173,-24.8999 16.6572,-21.5685 22.6537,-15.5719 L22.6537,29.7356 C22.6537,111.023 88.6161,174.32 167.238,174.32 C245.86,174.32 313.155,109.024 313.155,29.7356 L313.155,-1.57986 L313.155,-46.8873 L59.2995,-46.8873 L59.2995,-47.5536 L59.2995,-47.5536 Z " fill="#000000" fill-opacity="1.00" />		</g>	</svg>