<?xml version="1.0" encoding="utf-8"?>
<!-- Generator: Adobe Illustrator 22.0.1, SVG Export Plug-In . SVG Version: 6.00 Build 0)  -->
<svg version="1.1" id="Layer_1" xmlns="http://www.w3.org/2000/svg" xmlns:xlink="http://www.w3.org/1999/xlink" x="0px" y="0px"
	 viewBox="0 0 229 229" style="enable-background:new 0 0 229 229;" xml:space="preserve">
<style type="text/css">
	.st0{fill-rule:evenodd;clip-rule:evenodd;}
</style>
<path class="st0" d="M111.8,14.7v-0.2c19.9,0,36.9,7.1,51,21.2c8.8,8.8,14.8,18.6,18.1,29.6c0.8,2.8,1.5,5.6,2,8.5
	c0.7,3.9,1,7.9,1.1,12.1c0,0.3,0,0.7,0,1.1c0,0.1,0,0.3,0,0.4c0,0.1,0,0.3,0,0.4c0,0.2,0,0.3,0,0.5c0,0.1,0,0.3,0,0.4
	c0,0.1,0,0.2,0,0.3c0,0.2,0,0.4,0,0.6c0,0.1,0,0.3,0,0.4c0,0.1,0,0.3,0,0.4c0,0.1-0.1,0.3-0.1,0.4c-0.5,10.1-2.9,19.5-7.1,28.2
	c-1,2-2,3.9-3.2,5.8c-0.7,1-1.3,2-2,3l-52,80.1c-0.1,0.2-0.2,0.3-0.3,0.4c-0.3,0.4-0.6,0.8-0.9,1.3c-0.1,0.1-0.2,0.2-0.3,0.3
	l0.1,0.1l-2.9,4.5V104.6c0-2.7,1-5,2.9-6.9c2-1.9,4.3-2.9,7.1-2.9c2.8,0,5.1,1,7.1,2.9c2,2,3,4.4,3,7.1c0,0,0,0.1,0,0.1v0.1
	c0,0.1,0,0.3,0,0.4c0,1,0.4,1.9,1.1,2.6c0.7,0.7,1.6,1.1,2.7,1.1c1,0,1.9-0.4,2.6-1.1c0.7-0.7,1.1-1.6,1.1-2.6c0-0.3,0-0.7-0.1-0.9
	c-0.1-0.9-0.1-1.6-0.1-2c0-0.2,0-0.3,0-0.5c0.3-1.7,0.9-3,1.9-4c1.2-1.3,2.7-1.9,4.5-1.9c1.8,0,3.3,0.6,4.5,1.9
	c0.9,0.9,1.5,2,1.8,3.2c0,0.1,0.1,0.3,0.1,0.4c0,1,0.4,1.9,1.1,2.6c0.7,0.8,1.5,1.1,2.6,1.1c1,0,1.9-0.4,2.6-1.1
	c0.7-0.7,1.1-1.6,1.1-2.6c0-0.3,0-0.7-0.1-1v-0.1c0-0.1-0.1-0.3-0.1-0.4c0-0.1-0.1-0.2-0.1-0.3c-3-7.4-7.1-13.6-12.3-18.8
	c-9.6-9.6-21-14.8-34.3-15.6V55.1l-0.3-1.3c-0.2-0.4-0.4-0.8-0.8-1.1c-0.3-0.2-0.5-0.4-0.8-0.6l-1-0.3h-1.4l-0.9,0.3
	c-0.3,0.2-0.6,0.4-0.8,0.6c-0.3,0.3-0.6,0.7-0.8,1.1l-0.3,1.2c0,0,0,0.1,0,0.1v10.3C95.1,66.1,83.5,71.3,73.8,81
	c-5.1,5.1-9,10.8-11.6,16.9c0,0-0.1,0.2-0.2,0.4c-0.3,0.7-0.5,1.4-0.7,2c-0.2,0.6-0.3,1-0.3,1.1c0,1,0.4,1.9,1.1,2.6
	c0.7,0.8,1.6,1.1,2.6,1.1c1.1,0,1.9-0.4,2.6-1.1c0.6-0.5,0.9-1.2,1.1-1.9c0-0.2,0.1-0.3,0.1-0.4c0-0.1,0-0.2,0-0.3
	c0.3-1.3,0.9-2.4,1.8-3.3c1.2-1.3,2.7-1.9,4.5-1.9c1.8,0,3.3,0.6,4.5,1.9c1.3,1.3,1.9,2.8,1.9,4.6c0,0.2,0,0.3,0,0.5
	c0,0.6-0.1,1.2-0.3,1.7c0,0.1-0.1,0.2-0.1,0.4c0,1,0.4,1.9,1.1,2.6c0.7,0.7,1.6,1.1,2.6,1.1c1.1,0,1.9-0.4,2.7-1.1
	c0.7-0.7,1-1.5,1.1-2.3c0-0.3-0.1-0.5-0.1-0.8v-0.1c0-2.8,1-5.2,2.9-7.1c2-1.9,4.4-2.9,7.1-2.9c2.8,0,5.1,1,7.1,2.9
	c1.9,1.9,2.9,4.3,3,7c0,0,0,0.1,0,0.1c0,0.3,0,0.6-0.1,0.9v108.6l-3.9-5.9v-0.1l-52.7-80.1c-0.8-1.1-1.5-2.2-2.1-3.3
	c-7-11.2-10.5-23.9-10.5-38c0-0.4,0-0.7,0-1.1c0-4.1,0.4-8.1,1.1-12.1h0.3c0.5-2.9,1.2-5.7,2-8.5c3.3-10.9,9.3-20.8,18.1-29.6
	c14.1-14.1,31.2-21.2,51.2-21.2v0.3L111.8,14.7z"/>
</svg>
